<svg xmlns="http://www.w3.org/2000/svg" width="1200" height="400" viewBox="0 0 1200 400" role="img" aria-labelledby="title desc">
  <title id="title">Joon / firejune</title>
  <desc id="desc">Bringing characters to life with AI and the web. An abstract character rig connects artwork, bones, and motion.</desc>
  <defs>
    <linearGradient id="bg" x2="1" y2="1">
      <stop stop-color="#111c29"/><stop offset="1" stop-color="#182d36"/>
    </linearGradient>
    <pattern id="grid" width="32" height="32" patternUnits="userSpaceOnUse">
      <path d="M32 0H0V32" fill="none" stroke="#8dc9c6" stroke-opacity=".07"/>
    </pattern>
  </defs>
  <rect width="1200" height="400" rx="20" fill="url(#bg)"/>
  <rect width="1200" height="400" rx="20" fill="url(#grid)"/>
  <g font-family="-apple-system, BlinkMacSystemFont, 'Segoe UI', Helvetica, Arial, sans-serif">
    <text x="58" y="67" fill="#8ee8cf" font-size="19" letter-spacing="4">JOON / FIREJUNE</text>
    <text x="54" y="142" fill="#f3f7fa" font-size="52" font-weight="700">Bringing characters</text>
    <text x="54" y="206" fill="#f3f7fa" font-size="52" font-weight="700">to life.</text>
    <text x="58" y="257" fill="#b4c9d5" font-size="26">With AI and the web.</text>
    <path d="M58 296H658" stroke="#35505c"/>
    <text x="58" y="339" fill="#8ee8cf" font-size="17" letter-spacing="2">2D RIGGING</text>
    <circle cx="211" cy="333" r="3" fill="#5a7987"/>
    <text x="232" y="339" fill="#b4c9d5" font-size="17" letter-spacing="2">WEB GAMES</text>
    <circle cx="391" cy="333" r="3" fill="#5a7987"/>
    <text x="412" y="339" fill="#b4c9d5" font-size="17" letter-spacing="2">OPEN SOURCE</text>
  </g>
  <g transform="translate(932 192)">
    <circle r="144" fill="none" stroke="#426270" stroke-dasharray="3 9"/>
    <circle r="111" fill="none" stroke="#304d59"/>
    <path d="M-102-87L86-109L120 85L-98 106Z M-102-87L120 85 M86-109L-98 106" fill="none" stroke="#466773" stroke-width="1.5"/>
    <path d="M-4-73L-12-10L-73 14L-104-23 M-12-10L48-37L76-91 M-12-10L6 53L-38 119 M6 53L57 104" fill="none" stroke="#8ee8cf" stroke-width="7" stroke-linecap="round" stroke-linejoin="round"/>
    <g fill="#172c35" stroke="#8ee8cf" stroke-width="3">
      <circle cx="-4" cy="-94" r="23"/>
      <circle cx="-12" cy="-10" r="9"/><circle cx="-73" cy="14" r="7"/>
      <circle cx="-104" cy="-23" r="6"/><circle cx="48" cy="-37" r="7"/>
      <circle cx="76" cy="-91" r="6"/><circle cx="6" cy="53" r="9"/>
      <circle cx="-38" cy="119" r="6"/><circle cx="57" cy="104" r="6"/>
    </g>
    <g fill="#ffaf92">
      <circle cx="-102" cy="-87" r="4"/><circle cx="86" cy="-109" r="4"/>
      <circle cx="120" cy="85" r="4"/><circle cx="-98" cy="106" r="4"/>
    </g>
  </g>
</svg>
